<?xml version="1.0" encoding="utf-8"?>
<!-- Generator: Adobe Illustrator 19.1.0, SVG Export Plug-In . SVG Version: 6.00 Build 0)  -->
<svg version="1.1" id="Layer_1" xmlns="http://www.w3.org/2000/svg" xmlns:xlink="http://www.w3.org/1999/xlink" x="0px" y="0px"
	 viewBox="-9 -9 66 66" style="enable-background:new -9 -9 66 66;" xml:space="preserve">
<style type="text/css">
	.st0{fill:#F5F5F6;}
	.st1{fill:#4285F4;}
	.st2{fill:#34A853;}
	.st3{fill:#FBBC05;}
	.st4{fill:#EA4335;}
	.st5{fill:none;}
</style>
<rect x="-9" y="-9" class="st0" width="66" height="66"/>
<g>
	<g>
		<path class="st1" d="M38.4,24.3c0-1.1-0.1-2.1-0.3-3.1H24V27h8.1c-0.3,1.9-1.4,3.5-3,4.6v3.8h4.9C36.8,32.8,38.4,28.9,38.4,24.3z"
			/>
		<path class="st2" d="M24,39c4,0,7.4-1.3,9.9-3.6l-4.9-3.8C27.7,32.5,26,33,24,33c-3.9,0-7.2-2.6-8.4-6.2h-5v3.9
			C13.1,35.6,18.1,39,24,39z"/>
		<path class="st3" d="M10.6,30.7l5-3.9c-0.3-0.9-0.5-1.9-0.5-2.9s0.2-2,0.5-2.9v-3.9h-5c-1,2-1.6,4.3-1.6,6.7S9.6,28.7,10.6,30.7z"
			/>
		<path class="st4" d="M24,15c2.2,0,4.2,0.8,5.7,2.2l4.3-4.3C31.4,10.5,28,9,24,9c-5.9,0-10.9,3.4-13.4,8.3l5,3.9
			C16.8,17.6,20.1,15,24,15z"/>
		<path class="st5" d="M9,24V9h30v30H9V24z"/>
	</g>
</g>
</svg>